<svg xmlns="http://www.w3.org/2000/svg" xmlns:xlink="http://www.w3.org/1999/xlink" fill="none" version="1.1" width="420" height="420" viewBox="0 0 420 420"><defs><clipPath id="master_svg0_2_2735"><rect x="0" y="0" width="420" height="420" rx="0"/></clipPath><linearGradient x1="0.5" y1="0" x2="0.5" y2="1" id="master_svg1_2_0526"><stop offset="0%" stop-color="#18D9B3" stop-opacity="1"/><stop offset="100%" stop-color="#18D9B3" stop-opacity="0.20000000298023224"/></linearGradient><linearGradient x1="0.5" y1="0" x2="0.5" y2="1" id="master_svg2_2_141"><stop offset="0%" stop-color="#18D9B3" stop-opacity="1"/><stop offset="100%" stop-color="#18D9B3" stop-opacity="0"/></linearGradient><linearGradient x1="0.5" y1="0" x2="0.5" y2="1" id="master_svg3_2_141"><stop offset="0%" stop-color="#18D9B3" stop-opacity="1"/><stop offset="100%" stop-color="#18D9B3" stop-opacity="0"/></linearGradient><linearGradient x1="0.5" y1="0" x2="0.5" y2="1" id="master_svg4_2_141"><stop offset="0%" stop-color="#18D9B3" stop-opacity="1"/><stop offset="100%" stop-color="#18D9B3" stop-opacity="0"/></linearGradient></defs><g clip-path="url(#master_svg0_2_2735)"><g><g><path d="M106.8464,351L21,351L210.893,19L399,351L312.323,351L312.323,286.648L263.659,248.68L263.651,214.001C263.652,188.1,253.401,163.265,235.152,144.959L209.588,119.317L184.025,144.959C165.773,163.268,155.518,188.1,155.518,213.994L155.51,248.672L106.8464,286.641L106.8464,351Z" fill-rule="evenodd" fill="url(#master_svg1_2_0526)" fill-opacity="1"/></g><g><g><path d="M143,307.125L172,291L172,377L143,377L143,307.125Z" fill-rule="evenodd" fill="url(#master_svg2_2_141)" fill-opacity="1"/></g><g transform="matrix(-1,0,0,1,554,0)"><path d="M277,307.125L306,291L306,377L277,377L277,307.125Z" fill-rule="evenodd" fill="url(#master_svg3_2_141)" fill-opacity="1"/></g><g><path d="M196,237L224,237L224,401L196,401L196,244L196,237Z" fill-rule="evenodd" fill="url(#master_svg4_2_141)" fill-opacity="1"/></g></g></g></g></svg>